<svg width="1440" height="1024" viewBox="0 0 1440 1024" fill="none" xmlns="http://www.w3.org/2000/svg">
<rect width="1440" height="1024" fill="#E5E5E5"/>
<rect width="1440" height="1024" fill="white"/>
<path d="M718.419 595.984C608.127 595.984 489.137 525.574 489.137 371.074C489.137 216.574 608.127 146.164 718.419 146.164C779.692 146.164 836.222 166.684 878.125 204.102C923.586 245.141 947.7 303.078 947.7 371.074C947.7 439.07 923.586 496.605 878.125 537.645C836.222 575.063 779.297 595.984 718.419 595.984Z" fill="url(#paint0_radial_0_1)"/>
<path d="M907.734 237.375C928.804 271.977 939.794 313.177 939.794 359.004C939.794 427 915.68 484.535 870.219 525.574C828.316 562.992 771.391 583.914 710.512 583.914C639.119 583.914 564.247 554.342 520.051 491.616C562.587 562.67 642.598 595.984 718.419 595.984C779.297 595.984 836.222 575.062 878.125 537.645C923.586 496.605 947.7 439.07 947.7 371.074C947.7 319.816 933.983 274.27 907.734 237.375V237.375Z" fill="#EB8F00"/>
<path d="M640.938 282.72C624.374 282.72 609.312 296.962 609.312 320.62C609.312 344.278 624.374 358.481 640.938 358.481C657.541 358.481 672.562 344.238 672.562 320.62C672.562 297.003 657.699 282.72 640.938 282.72Z" fill="#422B0D"/>
<path d="M639.554 298.532C636.847 297.221 633.741 297.052 630.913 298.062C628.084 299.072 625.762 301.179 624.453 303.923C622.358 308.389 623.307 313.74 626.825 317.2C632.438 319.936 639.198 317.522 641.926 311.809C644.021 307.343 643.072 301.992 639.554 298.532Z" fill="#896024"/>
<path d="M792.738 282.72C776.174 282.72 761.113 296.962 761.113 320.62C761.113 344.278 776.174 358.481 792.738 358.481C809.301 358.481 824.363 344.238 824.363 320.62C824.363 297.003 809.301 282.72 792.738 282.72Z" fill="#422B0D"/>
<path d="M791.156 298.532C788.449 297.221 785.343 297.052 782.515 298.062C779.686 299.072 777.365 301.179 776.055 303.923C773.96 308.389 774.909 313.74 778.427 317.2C784.041 319.936 790.8 317.522 793.528 311.809C795.623 307.343 794.675 301.992 791.156 298.532Z" fill="#896024"/>
<path d="M625.125 487.915C653.074 466.671 685.608 452.509 720 446.594C754.192 440.044 789.425 441.879 822.781 451.945C828.355 453.675 832.704 446.916 828.157 443.536C798.39 421.488 757.436 411.349 714.9 419.154C672.365 426.96 637.498 450.738 617.219 481.96C614.017 486.708 620.381 491.536 625.125 487.915Z" fill="#422B0D"/>
<path d="M592.875 721.34H570.691V739.48H596.461V745H563.941V693.812H596.109V699.367H570.691V715.82H592.875V721.34ZM609.961 706.961L610.137 711.18C612.926 707.898 616.688 706.258 621.422 706.258C626.742 706.258 630.363 708.297 632.285 712.375C633.551 710.547 635.191 709.07 637.207 707.945C639.246 706.82 641.648 706.258 644.414 706.258C652.758 706.258 657 710.676 657.141 719.512V745H650.637V719.898C650.637 717.18 650.016 715.152 648.773 713.816C647.531 712.457 645.445 711.777 642.516 711.777C640.102 711.777 638.098 712.504 636.504 713.957C634.91 715.387 633.984 717.32 633.727 719.758V745H627.188V720.074C627.188 714.543 624.48 711.777 619.066 711.777C614.801 711.777 611.883 713.594 610.312 717.227V745H603.809V706.961H609.961ZM685.863 745V693.812H702.598C708.152 693.812 712.324 694.961 715.113 697.258C717.926 699.555 719.332 702.953 719.332 707.453C719.332 709.844 718.652 711.965 717.293 713.816C715.934 715.645 714.082 717.062 711.738 718.07C714.504 718.844 716.684 720.32 718.277 722.5C719.895 724.656 720.703 727.234 720.703 730.234C720.703 734.828 719.215 738.438 716.238 741.062C713.262 743.688 709.055 745 703.617 745H685.863ZM692.613 721.059V739.48H703.758C706.898 739.48 709.371 738.672 711.176 737.055C713.004 735.414 713.918 733.164 713.918 730.305C713.918 724.141 710.566 721.059 703.863 721.059H692.613ZM692.613 715.645H702.809C705.762 715.645 708.117 714.906 709.875 713.43C711.656 711.953 712.547 709.949 712.547 707.418C712.547 704.605 711.727 702.566 710.086 701.301C708.445 700.012 705.949 699.367 702.598 699.367H692.613V715.645ZM748.09 712.797C747.105 712.633 746.039 712.551 744.891 712.551C740.625 712.551 737.73 714.367 736.207 718V745H729.703V706.961H736.031L736.137 711.355C738.27 707.957 741.293 706.258 745.207 706.258C746.473 706.258 747.434 706.422 748.09 706.75V712.797ZM769.184 745.703C764.027 745.703 759.832 744.016 756.598 740.641C753.363 737.242 751.746 732.707 751.746 727.035V725.84C751.746 722.066 752.461 718.703 753.891 715.75C755.344 712.773 757.359 710.453 759.938 708.789C762.539 707.102 765.352 706.258 768.375 706.258C773.32 706.258 777.164 707.887 779.906 711.145C782.648 714.402 784.02 719.066 784.02 725.137V727.844H758.25C758.344 731.594 759.434 734.629 761.52 736.949C763.629 739.246 766.301 740.395 769.535 740.395C771.832 740.395 773.777 739.926 775.371 738.988C776.965 738.051 778.359 736.809 779.555 735.262L783.527 738.355C780.34 743.254 775.559 745.703 769.184 745.703ZM768.375 711.602C765.75 711.602 763.547 712.562 761.766 714.484C759.984 716.383 758.883 719.055 758.461 722.5H777.516V722.008C777.328 718.703 776.438 716.148 774.844 714.344C773.25 712.516 771.094 711.602 768.375 711.602ZM803.637 736.176L813.059 706.961H819.703L806.062 745H801.105L787.324 706.961H793.969L803.637 736.176ZM841.254 745.703C836.098 745.703 831.902 744.016 828.668 740.641C825.434 737.242 823.816 732.707 823.816 727.035V725.84C823.816 722.066 824.531 718.703 825.961 715.75C827.414 712.773 829.43 710.453 832.008 708.789C834.609 707.102 837.422 706.258 840.445 706.258C845.391 706.258 849.234 707.887 851.977 711.145C854.719 714.402 856.09 719.066 856.09 725.137V727.844H830.32C830.414 731.594 831.504 734.629 833.59 736.949C835.699 739.246 838.371 740.395 841.605 740.395C843.902 740.395 845.848 739.926 847.441 738.988C849.035 738.051 850.43 736.809 851.625 735.262L855.598 738.355C852.41 743.254 847.629 745.703 841.254 745.703ZM840.445 711.602C837.82 711.602 835.617 712.562 833.836 714.484C832.055 716.383 830.953 719.055 830.531 722.5H849.586V722.008C849.398 718.703 848.508 716.148 846.914 714.344C845.32 712.516 843.164 711.602 840.445 711.602ZM870.926 730.551H865.055L864.598 693.812H871.418L870.926 730.551ZM864.352 741.73C864.352 740.676 864.668 739.797 865.301 739.094C865.957 738.367 866.918 738.004 868.184 738.004C869.449 738.004 870.41 738.367 871.066 739.094C871.723 739.797 872.051 740.676 872.051 741.73C872.051 742.785 871.723 743.664 871.066 744.367C870.41 745.047 869.449 745.387 868.184 745.387C866.918 745.387 865.957 745.047 865.301 744.367C864.668 743.664 864.352 742.785 864.352 741.73Z" fill="black"/>
<defs>
<radialGradient id="paint0_radial_0_1" cx="0" cy="0" r="1" gradientUnits="userSpaceOnUse" gradientTransform="translate(718.419 371.074) scale(225.17 229.175)">
<stop offset="0.5" stop-color="#FDE030"/>
<stop offset="0.92" stop-color="#F7C02B"/>
<stop offset="1" stop-color="#F4A223"/>
</radialGradient>
</defs>
</svg>
